<?xml version="1.0" standalone="no"?>
<!DOCTYPE svg PUBLIC "-//W3C//DTD SVG 20010904//EN"
 "http://www.w3.org/TR/2001/REC-SVG-20010904/DTD/svg10.dtd">
<svg version="1.0" xmlns="http://www.w3.org/2000/svg"
 width="32.000000pt" height="32.000000pt" viewBox="0 0 512.000000 512.000000"
 preserveAspectRatio="xMidYMid meet">

<g transform="translate(0.000000,512.000000) scale(0.100000,-0.100000)"
fill="#000000" stroke="none">
<path d="M2452 5109 c-101 -18 -233 -88 -334 -178 -103 -92 -265 -315 -410
-566 -151 -260 -403 -721 -427 -780 -20 -48 -25 -77 -24 -145 0 -77 9 -116 92
-403 50 -174 91 -323 91 -330 0 -6 -149 -88 -331 -182 -231 -118 -346 -184
-382 -215 -64 -57 -118 -140 -140 -216 -15 -49 -222 -1291 -242 -1449 -15
-113 36 -259 123 -356 94 -105 214 -159 353 -159 l81 0 50 -44 c27 -25 74 -54
104 -66 55 -20 61 -20 1517 -18 l1462 3 50 27 c28 14 66 42 84 62 35 36 36 36
117 36 246 0 444 173 485 425 11 68 7 92 -105 780 -64 391 -125 736 -136 769
-11 32 -34 80 -51 107 -63 99 -114 133 -467 314 -182 94 -332 176 -332 182 0
7 41 156 91 330 83 288 92 326 92 403 0 68 -5 97 -25 146 -31 77 -404 745
-515 924 -263 423 -468 592 -732 605 -47 2 -110 0 -139 -6z m217 -84 c228 -54
432 -273 708 -760 188 -331 379 -683 395 -730 10 -27 17 -71 18 -96 0 -51
-208 -796 -239 -858 -25 -46 -90 -109 -164 -155 -53 -34 -58 -39 -55 -69 5
-51 38 -47 130 13 85 56 132 107 173 188 l26 53 132 -69 c73 -38 218 -114 322
-168 213 -110 270 -154 317 -248 27 -54 40 -119 129 -656 54 -327 99 -607 99
-621 0 -43 -79 -123 -163 -164 -87 -43 -165 -54 -364 -55 l-142 0 -3 669 -3
669 -30 43 c-16 23 -48 52 -70 63 -40 21 -41 21 -1320 21 -704 0 -1292 -3
-1307 -8 -38 -10 -98 -65 -114 -104 -11 -26 -14 -161 -14 -694 l0 -662 -192 6
c-203 5 -256 16 -338 65 -54 33 -140 123 -140 146 -1 53 195 1207 211 1251 23
61 76 134 121 168 31 23 653 347 667 347 3 0 15 -21 25 -48 38 -92 243 -262
284 -235 10 6 17 23 17 39 0 24 -11 36 -70 76 -81 55 -125 102 -153 161 -18
38 -168 550 -214 727 -24 96 -18 172 21 255 35 74 362 664 444 800 129 215
220 339 327 446 88 89 118 112 190 148 126 62 218 74 339 46z m1212 -3044 l29
-29 0 -936 0 -936 -1350 0 -1350 0 0 931 0 931 34 34 34 34 1287 0 1287 0 29
-29z m-2751 -1790 l0 -110 -32 11 c-52 18 -104 57 -130 96 -28 43 -49 98 -41
106 4 3 51 6 105 6 l98 0 0 -109z m3063 103 c9 -9 -13 -65 -41 -105 -30 -41
-83 -81 -129 -97 l-33 -11 0 110 0 109 98 0 c54 0 101 -3 105 -6z"/>
<path d="M2465 3909 c-73 -16 -685 -273 -720 -301 -50 -42 -87 -125 -87 -195
0 -85 77 -298 248 -681 77 -175 117 -226 212 -270 l57 -27 380 0 c367 0 382 1
426 21 55 26 123 85 154 134 12 19 86 193 165 385 79 193 148 353 153 356 5 4
10 36 10 71 0 95 -34 161 -113 219 -40 30 -622 272 -690 288 -54 13 -140 12
-195 0z"/>
<path d="M2463 1376 c-174 -57 -277 -225 -243 -393 24 -113 88 -198 187 -249
52 -26 68 -29 153 -29 84 0 102 3 151 28 62 30 126 93 157 154 114 222 -41
488 -291 499 -43 3 -89 -2 -114 -10z m214 -87 c60 -29 120 -101 139 -167 67
-228 -176 -420 -386 -306 -172 94 -185 328 -25 450 73 56 184 65 272 23z"/>
</g>
</svg>
